<svg width="36" height="36" viewBox="0 0 36 36" fill="none" xmlns="http://www.w3.org/2000/svg">
<path d="M4.5 6.405L6.42 4.5L31.5 29.58L29.595 31.5L24.09 25.995C23.16 27 21.81 27.825 20.25 28.23V31.5H15.75V28.23C12.705 27.465 10.5 25.185 10.5 22.5H13.5C13.5 24.12 15.555 25.5 18 25.5C19.695 25.5 21.21 24.84 21.975 23.88L17.52 19.425C14.37 18.63 10.5 17.625 10.5 13.5C10.5 13.155 10.5 12.825 10.605 12.51L4.5 6.405ZM15.75 7.77V4.5H20.25V7.77C23.295 8.535 25.5 10.815 25.5 13.5H22.5C22.5 11.88 20.445 10.5 18 10.5C17.445 10.5 16.92 10.575 16.425 10.695L14.1 8.37L15.75 7.77Z" fill="black"/>
</svg>
